<svg width="23" height="28" viewBox="0 0 23 28" fill="none" xmlns="http://www.w3.org/2000/svg">
<path d="M9.056 20.648C9.024 20.648 8.928 20.632 8.768 20.6C8.624 20.568 8.48 20.528 8.336 20.48C8.208 20.432 8.136 20.376 8.12 20.312C8.088 20.008 8.168 19.576 8.36 19.016C8.552 18.456 8.808 17.832 9.128 17.144C9.464 16.44 9.808 15.752 10.16 15.08C10.096 15.08 10.024 15.08 9.944 15.08C9.88 15.064 9.808 15.056 9.728 15.056C9.536 15.024 9.44 14.936 9.44 14.792C9.44 14.712 9.528 14.672 9.704 14.672C9.832 14.672 9.944 14.68 10.04 14.696C10.136 14.696 10.24 14.696 10.352 14.696C10.672 14.088 10.968 13.544 11.24 13.064C11.512 12.568 11.704 12.192 11.816 11.936C11.912 11.76 11.976 11.616 12.008 11.504C12.04 11.376 12.056 11.28 12.056 11.216C12.056 11.12 12.04 11.04 12.008 10.976C12.04 10.784 12.152 10.528 12.344 10.208C12.552 9.888 12.808 9.568 13.112 9.248C13.416 8.928 13.744 8.664 14.096 8.456C14.448 8.232 14.776 8.12 15.08 8.12C15.176 8.12 15.32 8.152 15.512 8.216C15.72 8.264 15.92 8.344 16.112 8.456C16.304 8.568 16.424 8.728 16.472 8.936C16.488 8.968 16.496 9.016 16.496 9.08C16.496 9.128 16.472 9.152 16.424 9.152C16.392 9.152 16.344 9.144 16.28 9.128C16.232 9.096 16.192 9.08 16.16 9.08C15.808 9.08 15.424 9.248 15.008 9.584C14.608 9.904 14.192 10.336 13.76 10.88C13.328 11.424 12.896 12.032 12.464 12.704C12.048 13.36 11.648 14.024 11.264 14.696C12.064 14.664 12.912 14.568 13.808 14.408C14.704 14.232 15.592 14 16.472 13.712C17.352 13.424 18.168 13.072 18.92 12.656C19.672 12.24 20.304 11.768 20.816 11.24C21.376 10.648 21.656 10.04 21.656 9.416C21.656 8.952 21.48 8.52 21.128 8.12C20.776 7.72 20.224 7.416 19.472 7.208C19.024 7.08 18.512 6.984 17.936 6.92C17.376 6.856 16.768 6.824 16.112 6.824C15.088 6.824 14.032 6.912 12.944 7.088C11.872 7.264 10.864 7.536 9.92 7.904C8.976 8.256 8.184 8.704 7.544 9.248C6.904 9.792 6.52 10.44 6.392 11.192C6.344 11.576 6.416 11.88 6.608 12.104C6.8 12.328 7.032 12.504 7.304 12.632C7.592 12.744 7.816 12.848 7.976 12.944C8.088 13.04 8.144 13.12 8.144 13.184C8.144 13.296 8.04 13.336 7.832 13.304C7.608 13.256 7.328 13.144 6.992 12.968C6.672 12.792 6.384 12.552 6.128 12.248C5.888 11.928 5.768 11.56 5.768 11.144C5.768 11.08 5.768 11.016 5.768 10.952C5.784 10.888 5.8 10.824 5.816 10.76C5.816 10.744 5.808 10.696 5.792 10.616C5.792 10.52 5.792 10.44 5.792 10.376C5.888 9.88 6.128 9.416 6.512 8.984C6.912 8.536 7.36 8.144 7.856 7.808C8.368 7.456 8.84 7.176 9.272 6.968C10.024 6.6 10.928 6.312 11.984 6.104C13.04 5.88 14.144 5.768 15.296 5.768C16 5.768 16.696 5.816 17.384 5.912C18.088 6.008 18.768 6.16 19.424 6.368C20.336 6.672 21.04 7.144 21.536 7.784C22.048 8.408 22.28 9.064 22.232 9.752C22.184 10.408 21.952 11 21.536 11.528C21.136 12.056 20.616 12.52 19.976 12.92C19.352 13.304 18.656 13.64 17.888 13.928C17.136 14.2 16.376 14.424 15.608 14.6C14.872 14.76 14.088 14.88 13.256 14.96C12.44 15.04 11.704 15.088 11.048 15.104C10.664 15.792 10.32 16.44 10.016 17.048C9.728 17.656 9.512 18.144 9.368 18.512C9.24 18.864 9.176 19.112 9.176 19.256C9.176 19.48 9.264 19.592 9.44 19.592C9.664 19.592 9.904 19.44 10.16 19.136C10.336 18.928 10.496 18.736 10.64 18.56C10.8 18.368 10.936 18.288 11.048 18.32C11.064 18.336 11.072 18.36 11.072 18.392C11.072 18.472 11.016 18.584 10.904 18.728C10.792 18.856 10.728 18.928 10.712 18.944C10.6 19.104 10.448 19.32 10.256 19.592C10.08 19.864 9.888 20.104 9.68 20.312C9.488 20.536 9.28 20.648 9.056 20.648Z" fill="url(#paint0_linear_274_10)"/>
<path opacity="0.5" d="M4.056 16.648C4.024 16.648 3.928 16.632 3.768 16.6C3.624 16.568 3.48 16.528 3.336 16.48C3.208 16.432 3.136 16.376 3.12 16.312C3.088 16.008 3.168 15.576 3.36 15.016C3.552 14.456 3.808 13.832 4.128 13.144C4.464 12.44 4.808 11.752 5.16 11.08C5.096 11.08 5.024 11.08 4.944 11.08C4.88 11.064 4.808 11.056 4.728 11.056C4.536 11.024 4.44 10.936 4.44 10.792C4.44 10.712 4.528 10.672 4.704 10.672C4.832 10.672 4.944 10.68 5.04 10.696C5.136 10.696 5.24 10.696 5.352 10.696C5.672 10.088 5.968 9.544 6.24 9.064C6.512 8.568 6.704 8.192 6.816 7.936C6.912 7.76 6.976 7.616 7.008 7.504C7.04 7.376 7.056 7.28 7.056 7.216C7.056 7.12 7.04 7.04 7.008 6.976C7.04 6.784 7.152 6.528 7.344 6.208C7.552 5.888 7.808 5.568 8.112 5.248C8.416 4.928 8.744 4.664 9.096 4.456C9.448 4.232 9.776 4.12 10.08 4.12C10.176 4.12 10.32 4.152 10.512 4.216C10.72 4.264 10.92 4.344 11.112 4.456C11.304 4.568 11.424 4.728 11.472 4.936C11.488 4.968 11.496 5.016 11.496 5.08C11.496 5.128 11.472 5.152 11.424 5.152C11.392 5.152 11.344 5.144 11.28 5.128C11.232 5.096 11.192 5.08 11.16 5.08C10.808 5.08 10.424 5.248 10.008 5.584C9.608 5.904 9.192 6.336 8.76 6.88C8.328 7.424 7.896 8.032 7.464 8.704C7.048 9.36 6.648 10.024 6.264 10.696C7.064 10.664 7.912 10.568 8.808 10.408C9.704 10.232 10.592 10 11.472 9.712C12.352 9.424 13.168 9.072 13.92 8.656C14.672 8.24 15.304 7.768 15.816 7.24C16.376 6.648 16.656 6.04 16.656 5.416C16.656 4.952 16.48 4.52 16.128 4.12C15.776 3.72 15.224 3.416 14.472 3.208C14.024 3.08 13.512 2.984 12.936 2.92C12.376 2.856 11.768 2.824 11.112 2.824C10.088 2.824 9.032 2.912 7.944 3.088C6.872 3.264 5.864 3.536 4.92 3.904C3.976 4.256 3.184 4.704 2.544 5.248C1.904 5.792 1.52 6.44 1.392 7.192C1.344 7.576 1.416 7.88 1.608 8.104C1.8 8.328 2.032 8.504 2.304 8.632C2.592 8.744 2.816 8.848 2.976 8.944C3.088 9.04 3.144 9.12 3.144 9.184C3.144 9.296 3.04 9.336 2.832 9.304C2.608 9.256 2.328 9.144 1.992 8.968C1.672 8.792 1.384 8.552 1.128 8.248C0.888 7.928 0.768 7.56 0.768 7.144C0.768 7.08 0.768 7.016 0.768 6.952C0.784 6.888 0.8 6.824 0.816 6.76C0.816 6.744 0.808 6.696 0.792 6.616C0.792 6.52 0.792 6.44 0.792 6.376C0.888 5.88 1.128 5.416 1.512 4.984C1.912 4.536 2.36 4.144 2.856 3.808C3.368 3.456 3.84 3.176 4.272 2.968C5.024 2.6 5.928 2.312 6.984 2.104C8.04 1.88 9.144 1.768 10.296 1.768C11 1.768 11.696 1.816 12.384 1.912C13.088 2.008 13.768 2.16 14.424 2.368C15.336 2.672 16.04 3.144 16.536 3.784C17.048 4.408 17.28 5.064 17.232 5.752C17.184 6.408 16.952 7 16.536 7.528C16.136 8.056 15.616 8.52 14.976 8.92C14.352 9.304 13.656 9.64 12.888 9.928C12.136 10.2 11.376 10.424 10.608 10.6C9.872 10.76 9.088 10.88 8.256 10.96C7.44 11.04 6.704 11.088 6.048 11.104C5.664 11.792 5.32 12.44 5.016 13.048C4.728 13.656 4.512 14.144 4.368 14.512C4.24 14.864 4.176 15.112 4.176 15.256C4.176 15.48 4.264 15.592 4.44 15.592C4.664 15.592 4.904 15.44 5.16 15.136C5.336 14.928 5.496 14.736 5.64 14.56C5.8 14.368 5.936 14.288 6.048 14.32C6.064 14.336 6.072 14.36 6.072 14.392C6.072 14.472 6.016 14.584 5.904 14.728C5.792 14.856 5.728 14.928 5.712 14.944C5.6 15.104 5.448 15.32 5.256 15.592C5.08 15.864 4.888 16.104 4.68 16.312C4.488 16.536 4.28 16.648 4.056 16.648Z" fill="url(#paint1_linear_274_10)"/>
<defs>
<linearGradient id="paint0_linear_274_10" x1="-0.136792" y1="-7.375" x2="32.67" y2="-0.518422" gradientUnits="userSpaceOnUse">
<stop stop-color="#FFFEFC"/>
<stop offset="0.3125" stop-color="#EEC28A"/>
<stop offset="1" stop-color="#935507"/>
</linearGradient>
<linearGradient id="paint1_linear_274_10" x1="-5.13679" y1="-11.375" x2="27.67" y2="-4.51842" gradientUnits="userSpaceOnUse">
<stop stop-color="#FFFEFC"/>
<stop offset="0.3125" stop-color="#EEC28A"/>
<stop offset="1" stop-color="#935507"/>
</linearGradient>
</defs>
</svg>
